<svg width="225" height="233" viewBox="0 0 225 233" fill="none" xmlns="http://www.w3.org/2000/svg">
<g clip-path="url(#clip0_927_951)">
<path d="M60.5815 129.808H68.6591C71.9843 129.808 74.4884 131.633 74.4884 135.389C74.4884 139.145 71.9843 140.943 68.6591 140.943H64.8896V143.894H60.5815V129.808ZM64.9569 133.564V137.187H68.2821C68.5298 137.222 68.7822 137.201 69.0206 137.126C69.259 137.05 69.4771 136.921 69.6584 136.75C69.8398 136.578 69.9798 136.368 70.0679 136.134C70.1559 135.901 70.1898 135.651 70.1669 135.402C70.1907 135.152 70.1579 134.899 70.071 134.662C69.984 134.426 69.8452 134.212 69.6645 134.035C69.4839 133.859 69.266 133.725 69.0268 133.644C68.7876 133.563 68.5332 133.535 68.2821 133.564H64.9569Z" fill="#1D1D1B"/>
<path d="M93.74 129.808H98.1153V143.894H93.74V129.808Z" fill="#1D1D1B"/>
<path d="M100.431 129.808H104.806L110.393 137.307V129.808H114.769V143.894H110.393L104.806 136.516V143.894H100.431V129.808Z" fill="#1D1D1B"/>
<path d="M120.853 133.564H116.344V129.808H129.725V133.564H125.202V143.894H120.853V133.564Z" fill="#1D1D1B"/>
<path d="M132.472 139.011C134.442 140.05 136.625 140.624 138.853 140.688C140.038 140.688 140.738 140.406 140.738 139.977C140.738 138.474 131.556 138.944 131.556 133.739C131.556 131.23 134.02 129.339 138.288 129.339C140.552 129.206 142.799 129.803 144.696 131.042L142.946 134.235C141.393 133.456 139.688 133.025 137.951 132.974C136.78 132.974 136.012 133.256 136.012 133.766C136.012 135.268 145.194 134.705 145.194 140.084C145.194 142.137 143.228 144.404 138.664 144.404C136.034 144.418 133.432 143.855 131.045 142.754L132.472 139.011Z" fill="#1D1D1B"/>
<path d="M77.8406 152.346H89.8896V156.103H82.2159V158.786H89.0145V162.327H82.2159V166.473H77.8406V152.346Z" fill="#1D1D1B"/>
<path d="M101.346 152.346L104.564 162.247H105.116L108.333 152.346H113.086L107.956 166.432H101.817L96.6882 152.346H101.346Z" fill="#1D1D1B"/>
<path d="M114.594 152.346H118.969V166.432H114.594V152.346Z" fill="#1D1D1B"/>
<path d="M121.284 152.346H133.401V156.103H125.727V157.847H132.754V160.986H125.66V162.73H133.279V166.486H121.163L121.284 152.346Z" fill="#1D1D1B"/>
<path d="M139.351 152.346L141.505 161.08L143.592 152.346H147.631L149.731 161.093L151.885 152.346H156.516L152.477 166.432H147.536L145.598 159.47L143.659 166.432H138.665L134.626 152.346H139.351Z" fill="#1D1D1B"/>
<path d="M26.1443 52.1595C40.576 52.1595 52.2751 40.5012 52.2751 26.12C52.2751 11.7388 40.576 0.0805664 26.1443 0.0805664C11.7126 0.0805664 0.0134277 11.7388 0.0134277 26.12C0.0134277 40.5012 11.7126 52.1595 26.1443 52.1595Z" fill="#1D1D1B"/>
<path d="M86.6316 52.0789C101.063 52.0789 112.762 40.4206 112.762 26.0394C112.762 11.6583 101.063 0 86.6316 0C72.1999 0 60.5007 11.6583 60.5007 26.0394C60.5007 40.4206 72.1999 52.0789 86.6316 52.0789Z" fill="#1D1D1B"/>
<path d="M86.7124 112.355C101.144 112.355 112.843 100.696 112.843 86.3151C112.843 71.9339 101.144 60.2756 86.7124 60.2756C72.2807 60.2756 60.5815 71.9339 60.5815 86.3151C60.5815 100.696 72.2807 112.355 86.7124 112.355Z" fill="#1D1D1B"/>
<path d="M26.1309 112.422C40.5625 112.422 52.2617 100.763 52.2617 86.3822C52.2617 72.001 40.5625 60.3428 26.1309 60.3428C11.6992 60.3428 0 72.001 0 86.3822C0 100.763 11.6992 112.422 26.1309 112.422Z" fill="#1D1D1B"/>
<path d="M26.1443 172.671C40.576 172.671 52.2751 161.012 52.2751 146.631C52.2751 132.25 40.576 120.592 26.1443 120.592C11.7126 120.592 0.0134277 132.25 0.0134277 146.631C0.0134277 161.012 11.7126 172.671 26.1443 172.671Z" fill="#C15191"/>
<path d="M83.8583 145.102C88.3194 145.102 91.9359 141.498 91.9359 137.052C91.9359 132.607 88.3194 129.003 83.8583 129.003C79.3972 129.003 75.7808 132.607 75.7808 137.052C75.7808 141.498 79.3972 145.102 83.8583 145.102Z" fill="#C15191"/>
<path d="M67.8515 167.452C72.3126 167.452 75.929 163.848 75.929 159.403C75.929 154.957 72.3126 151.354 67.8515 151.354C63.3904 151.354 59.7739 154.957 59.7739 159.403C59.7739 163.848 63.3904 167.452 67.8515 167.452Z" fill="#C15191"/>
<path d="M26.1577 232.759C40.5894 232.759 52.2886 221.1 52.2886 206.719C52.2886 192.338 40.5894 180.68 26.1577 180.68C11.726 180.68 0.0268555 192.338 0.0268555 206.719C0.0268555 221.1 11.726 232.759 26.1577 232.759Z" fill="#1D1D1B"/>
<path d="M86.5645 232.987C100.996 232.987 112.695 221.328 112.695 206.947C112.695 192.566 100.996 180.908 86.5645 180.908C72.1328 180.908 60.4336 192.566 60.4336 206.947C60.4336 221.328 72.1328 232.987 86.5645 232.987Z" fill="#1D1D1B"/>
<path d="M198.869 172.577C213.301 172.577 225 160.918 225 146.537C225 132.156 213.301 120.498 198.869 120.498C184.437 120.498 172.738 132.156 172.738 146.537C172.738 160.918 184.437 172.577 198.869 172.577Z" fill="#C15191"/>
<path d="M67.2995 138.501C69.0542 138.501 70.4766 137.084 70.4766 135.335C70.4766 133.587 69.0542 132.169 67.2995 132.169C65.5448 132.169 64.1223 133.587 64.1223 135.335C64.1223 137.084 65.5448 138.501 67.2995 138.501Z" fill="#C15191"/>
</g>
<defs>
<clipPath id="clip0_927_951">
<rect width="225" height="233" fill="white"/>
</clipPath>
</defs>
</svg>
