<svg width="90" height="90" viewBox="0 0 90 90" fill="none" xmlns="http://www.w3.org/2000/svg">
<circle cx="45" cy="45" r="45" fill="#C15191"/>
<path d="M41.25 43.75C42.2389 43.75 43.2056 43.4568 44.0279 42.9074C44.8501 42.3579 45.491 41.5771 45.8694 40.6634C46.2478 39.7498 46.3469 38.7445 46.1539 37.7746C45.961 36.8046 45.4848 35.9137 44.7855 35.2145C44.0863 34.5152 43.1954 34.039 42.2255 33.8461C41.2555 33.6531 40.2502 33.7522 39.3366 34.1306C38.423 34.509 37.6421 35.1499 37.0927 35.9722C36.5432 36.7944 36.25 37.7611 36.25 38.75C36.25 40.0761 36.7768 41.3479 37.7145 42.2855C38.6521 43.2232 39.9239 43.75 41.25 43.75ZM51.25 46.25C51.9917 46.25 52.7167 46.0301 53.3334 45.618C53.9501 45.206 54.4307 44.6203 54.7145 43.9351C54.9984 43.2498 55.0726 42.4958 54.9279 41.7684C54.7833 41.041 54.4261 40.3728 53.9017 39.8484C53.3772 39.3239 52.709 38.9668 51.9816 38.8221C51.2542 38.6774 50.5002 38.7516 49.8149 39.0355C49.1297 39.3193 48.544 39.7999 48.132 40.4166C47.7199 41.0333 47.5 41.7583 47.5 42.5C47.5 43.4946 47.8951 44.4484 48.5983 45.1517C49.3016 45.8549 50.2554 46.25 51.25 46.25ZM56.25 55C56.5815 55 56.8995 54.8683 57.1339 54.6339C57.3683 54.3995 57.5 54.0815 57.5 53.75C57.499 52.5817 57.1706 51.4372 56.552 50.4461C55.9334 49.455 55.0495 48.6572 54.0004 48.1431C52.9514 47.629 51.7792 47.4192 50.617 47.5375C49.4547 47.6558 48.3489 48.0975 47.425 48.8125C46.2006 47.5929 44.6426 46.7632 42.9473 46.428C41.252 46.0928 39.4954 46.2671 37.899 46.9289C36.3027 47.5907 34.938 48.7104 33.9772 50.1468C33.0163 51.5832 32.5023 53.2719 32.5 55C32.5 55.3315 32.6317 55.6495 32.8661 55.8839C33.1005 56.1183 33.4185 56.25 33.75 56.25H48.75C49.0815 56.25 49.3995 56.1183 49.6339 55.8839C49.8683 55.6495 50 55.3315 50 55" fill="#E9E9E8"/>
</svg>
