<svg width="50" height="50" viewBox="0 0 50 50" fill="none" xmlns="http://www.w3.org/2000/svg">
<circle cx="25" cy="25" r="25" fill="#198F76"/>
<path d="M32.4999 18.8125C32.4999 18.481 32.3682 18.163 32.1338 17.9286C31.8994 17.6942 31.5814 17.5625 31.2499 17.5625L21.2499 17.5C20.9184 17.5 20.6005 17.6317 20.366 17.8661C20.1316 18.1005 19.9999 18.4185 19.9999 18.75C19.9999 19.0815 20.1316 19.3995 20.366 19.6339C20.6005 19.8683 20.9184 20 21.2499 20H28.1999L17.8624 30.3625C17.7453 30.4787 17.6523 30.617 17.5888 30.7693C17.5253 30.9216 17.4927 31.085 17.4927 31.25C17.4927 31.415 17.5253 31.5784 17.5888 31.7307C17.6523 31.883 17.7453 32.0213 17.8624 32.1375C17.9786 32.2547 18.1169 32.3477 18.2692 32.4111C18.4215 32.4746 18.5849 32.5072 18.7499 32.5072C18.9149 32.5072 19.0783 32.4746 19.2306 32.4111C19.383 32.3477 19.5212 32.2547 19.6374 32.1375L29.9999 21.775V28.75C29.9999 29.0815 30.1316 29.3995 30.366 29.6339C30.6005 29.8683 30.9184 30 31.2499 30C31.5814 30 31.8994 29.8683 32.1338 29.6339C32.3682 29.3995 32.4999 29.0815 32.4999 28.75V18.8125Z" fill="#E9E9E8"/>
</svg>
