<svg width="90" height="90" viewBox="0 0 90 90" fill="none" xmlns="http://www.w3.org/2000/svg">
<circle cx="45" cy="45" r="45" fill="#C15191"/>
<path d="M44.9999 32.5C41.6248 32.5657 38.4135 33.9672 36.0702 36.3972C33.7269 38.8272 32.443 42.0872 32.4999 45.4625V51.25C32.4999 52.2389 32.7931 53.2056 33.3425 54.0279C33.8919 54.8501 34.6728 55.491 35.5864 55.8694C36.5001 56.2478 37.5054 56.3469 38.4753 56.1539C39.4452 55.961 40.3361 55.4848 41.0354 54.7855C41.7347 54.0863 42.2109 53.1954 42.4038 52.2255C42.5967 51.2555 42.4977 50.2502 42.1193 49.3366C41.7408 48.423 41.1 47.6421 40.2777 47.0927C39.4555 46.5432 38.4888 46.25 37.4999 46.25C36.6187 46.2537 35.7549 46.4956 34.9999 46.95V45.4625C34.9428 42.7502 35.9634 40.1259 37.8378 38.1648C39.7123 36.2036 42.2878 35.0656 44.9999 35C47.7119 35.0656 50.2874 36.2036 52.1619 38.1648C54.0364 40.1259 55.0569 42.7502 54.9999 45.4625V46.95C54.2449 46.4956 53.3811 46.2537 52.4999 46.25C51.511 46.25 50.5443 46.5432 49.722 47.0927C48.8998 47.6421 48.2589 48.423 47.8805 49.3366C47.502 50.2502 47.403 51.2555 47.5959 52.2255C47.7889 53.1954 48.2651 54.0863 48.9643 54.7855C49.6636 55.4848 50.5545 55.961 51.5244 56.1539C52.4943 56.3469 53.4996 56.2478 54.4133 55.8694C55.3269 55.491 56.1078 54.8501 56.6572 54.0279C57.2066 53.2056 57.4999 52.2389 57.4999 51.25V45.4625C57.5568 42.0872 56.2728 38.8272 53.9295 36.3972C51.5863 33.9672 48.375 32.5657 44.9999 32.5Z" fill="#E9E9E8"/>
</svg>
