<svg width="90" height="90" viewBox="0 0 90 90" fill="none" xmlns="http://www.w3.org/2000/svg">
<circle cx="45" cy="45" r="45" fill="#C15191"/>
<path d="M57.5 45C57.5 43.3585 57.1767 41.733 56.5485 40.2165C55.9203 38.6999 54.9996 37.3219 53.8388 36.1612C52.6781 35.0004 51.3001 34.0797 49.7835 33.4515C48.267 32.8233 46.6415 32.5 45 32.5C41.6848 32.5 38.5054 33.817 36.1612 36.1612C33.817 38.5054 32.5 41.6848 32.5 45C32.5 48.3152 33.817 51.4946 36.1612 53.8388C38.5054 56.183 41.6848 57.5 45 57.5C48.3152 57.5 51.4946 56.183 53.8388 53.8388C56.183 51.4946 57.5 48.3152 57.5 45ZM54.9125 43.75H51.25C51.0438 40.8102 50.0366 37.9829 48.3375 35.575C50.0831 36.195 51.6222 37.2876 52.7831 38.7311C53.9441 40.1745 54.6813 41.9121 54.9125 43.75ZM41.35 46.25H48.75C48.4301 49.3382 47.1138 52.2385 45 54.5125C42.8876 52.248 41.6015 49.3366 41.35 46.25ZM41.35 43.75C41.6411 40.6773 42.922 37.7821 45 35.5C47.1309 37.7577 48.4502 40.6601 48.75 43.75H41.35ZM41.8 35.5375C40.0919 37.9588 39.0685 40.7959 38.8375 43.75H35.0875C35.3236 41.8894 36.0783 40.1327 37.2652 38.6805C38.4522 37.2283 40.0236 36.1392 41.8 35.5375ZM35.0875 46.25H38.8375C39.0434 49.2016 40.0598 52.0391 41.775 54.45C40.005 53.8454 38.44 52.7565 37.2578 51.307C36.0757 49.8575 35.3238 48.1055 35.0875 46.25ZM48.275 54.4375C49.9855 52.0258 51.0133 49.1972 51.25 46.25H54.9375C54.7011 48.1003 53.9519 49.8476 52.7746 51.2944C51.5972 52.7413 50.0386 53.83 48.275 54.4375Z" fill="#E9E9E8"/>
</svg>
