<svg width="90" height="90" viewBox="0 0 90 90" fill="none" xmlns="http://www.w3.org/2000/svg">
<circle cx="45" cy="45" r="45" fill="#C15191"/>
<path d="M54.675 39.1627L49.125 32.9127C49.0081 32.7832 48.8655 32.6796 48.7062 32.6086C48.5468 32.5376 48.3744 32.5006 48.2 32.5002H38.2C37.7847 32.4953 37.3725 32.5722 36.9869 32.7265C36.6013 32.8809 36.2499 33.1097 35.9527 33.3999C35.6556 33.6901 35.4185 34.036 35.255 34.4178C35.0916 34.7996 35.0049 35.2099 35 35.6252V54.3752C35.0049 54.7905 35.0916 55.2008 35.255 55.5826C35.4185 55.9645 35.6556 56.3103 35.9527 56.6005C36.2499 56.8907 36.6013 57.1195 36.9869 57.2739C37.3725 57.4283 37.7847 57.5052 38.2 57.5002H51.8C52.2153 57.5052 52.6275 57.4283 53.0131 57.2739C53.3987 57.1195 53.7501 56.8907 54.0473 56.6005C54.3444 56.3103 54.5815 55.9645 54.745 55.5826C54.9084 55.2008 54.9951 54.7905 55 54.3752V40.0002C54.9992 39.6904 54.8834 39.392 54.675 39.1627ZM41.25 45.0002H45C45.3315 45.0002 45.6495 45.1319 45.8839 45.3663C46.1183 45.6008 46.25 45.9187 46.25 46.2502C46.25 46.5817 46.1183 46.8997 45.8839 47.1341C45.6495 47.3685 45.3315 47.5002 45 47.5002H41.25C40.9185 47.5002 40.6005 47.3685 40.3661 47.1341C40.1317 46.8997 40 46.5817 40 46.2502C40 45.9187 40.1317 45.6008 40.3661 45.3663C40.6005 45.1319 40.9185 45.0002 41.25 45.0002ZM48.75 52.5002H41.25C40.9185 52.5002 40.6005 52.3685 40.3661 52.1341C40.1317 51.8997 40 51.5817 40 51.2502C40 50.9187 40.1317 50.6008 40.3661 50.3663C40.6005 50.1319 40.9185 50.0002 41.25 50.0002H48.75C49.0815 50.0002 49.3995 50.1319 49.6339 50.3663C49.8683 50.6008 50 50.9187 50 51.2502C50 51.5817 49.8683 51.8997 49.6339 52.1341C49.3995 52.3685 49.0815 52.5002 48.75 52.5002ZM48.3875 40.0002C48.1298 39.9748 47.8924 39.8493 47.7264 39.6505C47.5604 39.4518 47.4791 39.1958 47.5 38.9377V35.0002L52.175 40.0002H48.3875Z" fill="#E9E9E8"/>
</svg>
