<svg width="90" height="90" viewBox="0 0 90 90" fill="none" xmlns="http://www.w3.org/2000/svg">
<circle cx="45" cy="45" r="45" fill="#C15191"/>
<path d="M54.4252 36.3504C53.1719 35.106 51.6827 34.1244 50.0449 33.4632C48.4071 32.8021 46.6537 32.4748 44.8877 32.5004C41.5725 32.4921 38.3898 33.8011 36.0397 36.1395C33.6897 38.4778 32.3648 41.654 32.3565 44.9692C32.3482 48.2844 33.6572 51.4671 35.9956 53.8172C38.3339 56.1672 41.51 57.4921 44.8252 57.5004C45.5396 57.5126 46.2378 57.2872 46.8102 56.8596C47.3826 56.432 47.7968 55.8264 47.9877 55.1379C48.1095 54.6407 48.1082 54.1214 47.9841 53.6248C47.8599 53.1282 47.6166 52.6693 47.2752 52.2879C47.1963 52.1981 47.1448 52.0875 47.1268 51.9693C47.1089 51.851 47.1252 51.7301 47.1739 51.6209C47.2226 51.5117 47.3016 51.4187 47.4015 51.3531C47.5015 51.2874 47.6182 51.2518 47.7377 51.2504H49.8002C51.7414 51.2595 53.6142 50.5339 55.0424 49.2192C56.4707 47.9045 57.3487 46.0982 57.5002 44.1629C57.5467 42.7199 57.298 41.2827 56.7692 39.9392C56.2404 38.5958 55.4428 37.3746 54.4252 36.3504ZM38.5502 48.4254C38.2433 48.634 37.8814 48.7468 37.5104 48.7496C37.1393 48.7524 36.7757 48.645 36.4657 48.441C36.1557 48.2371 35.9132 47.9457 35.7689 47.6039C35.6246 47.262 35.585 46.885 35.655 46.5206C35.7251 46.1562 35.9017 45.8208 36.1626 45.5568C36.4234 45.2928 36.7567 45.1122 37.1202 45.0378C37.4837 44.9633 37.8612 44.9985 38.2048 45.1387C38.5483 45.2789 38.8426 45.5179 39.0502 45.8254C39.1894 46.0286 39.2869 46.2573 39.3371 46.4983C39.3873 46.7393 39.3892 46.988 39.3427 47.2297C39.2962 47.4715 39.2022 47.7017 39.0662 47.9069C38.9302 48.1122 38.7548 48.2884 38.5502 48.4254ZM40.3752 41.5629C40.1974 41.8923 39.925 42.1609 39.5932 42.3342C39.2613 42.5075 38.8852 42.5774 38.5133 42.5351C38.1413 42.4927 37.7906 42.34 37.5062 42.0966C37.2218 41.8532 37.0167 41.5302 36.9175 41.1693C36.8182 40.8083 36.8293 40.4259 36.9492 40.0713C37.0692 39.7167 37.2925 39.4061 37.5905 39.1796C37.8885 38.953 38.2475 38.8208 38.6213 38.8C38.995 38.7792 39.3665 38.8708 39.6877 39.0629C40.1023 39.3108 40.4052 39.7092 40.5332 40.1749C40.6613 40.6407 40.6047 41.1379 40.3752 41.5629ZM43.7502 38.7504C43.3794 38.7504 43.0169 38.6405 42.7085 38.4344C42.4002 38.2284 42.1599 37.9356 42.018 37.593C41.876 37.2503 41.8389 36.8733 41.9113 36.5096C41.9836 36.1459 42.1622 35.8118 42.4244 35.5496C42.6866 35.2874 43.0207 35.1088 43.3844 35.0365C43.7482 34.9641 44.1252 35.0012 44.4678 35.1431C44.8104 35.2851 45.1032 35.5254 45.3092 35.8337C45.5153 36.1421 45.6252 36.5046 45.6252 36.8754C45.6252 37.3727 45.4277 37.8496 45.0761 38.2012C44.7244 38.5529 44.2475 38.7504 43.7502 38.7504ZM50.9377 39.7504C50.6165 39.9426 50.245 40.0341 49.8713 40.0133C49.4975 39.9926 49.1385 39.8604 48.8405 39.6338C48.5425 39.4072 48.3192 39.0966 48.1992 38.742C48.0793 38.3874 48.0682 38.005 48.1675 37.6441C48.2667 37.2831 48.4718 36.9602 48.7562 36.7167C49.0406 36.4733 49.3913 36.3206 49.7633 36.2783C50.1352 36.2359 50.5113 36.3059 50.8432 36.4791C51.175 36.6524 51.4474 36.921 51.6252 37.2504C51.8547 37.6755 51.9113 38.1727 51.7833 38.6384C51.6552 39.1042 51.3523 39.5025 50.9377 39.7504Z" fill="#E9E9E8"/>
</svg>
