<svg width="878" height="583" viewBox="0 0 878 583" fill="none" xmlns="http://www.w3.org/2000/svg">
<rect x="750" width="128" height="452" rx="64" fill="#799FCC"/>
<path fill-rule="evenodd" clip-rule="evenodd" d="M595 452C680.604 452 750 382.604 750 297C750 211.396 680.604 142 595 142V452Z" fill="#198F76"/>
<path fill-rule="evenodd" clip-rule="evenodd" d="M381 516C381 551.346 409.654 580 445 580C480.346 580 509 551.346 509 516C509 516 509 516 509 516L381 516Z" fill="#198F76"/>
<path fill-rule="evenodd" clip-rule="evenodd" d="M381 452C381 487.346 409.654 516 445 516C480.346 516 509 487.346 509 452C509 452 509 452 509 452L381 452Z" fill="#198F76"/>
<path fill-rule="evenodd" clip-rule="evenodd" d="M509 142C509 165.196 528.252 184 552 184C575.748 184 595 165.196 595 142C595 142 595 142 595 142L509 142Z" fill="#C495C4"/>
<circle cx="814" cy="516" r="64" fill="#C15191"/>
<path fill-rule="evenodd" clip-rule="evenodd" d="M509 580H686C721.346 580 750 551.346 750 516C750 480.654 721.346 452 686 452H509V580Z" fill="#C495C4"/>
<path fill-rule="evenodd" clip-rule="evenodd" d="M128 452C57.3075 452 -4.57764e-05 509.308 -4.57764e-05 580L128 580L128 452Z" fill="#C495C4"/>
<path d="M128 516C128 480.654 156.654 452 192 452H381V580H192C156.654 580 128 551.346 128 516Z" fill="#799FCC"/>
<circle cx="317" cy="516" r="64" fill="#C15191"/>
<path fill-rule="evenodd" clip-rule="evenodd" d="M595 452V227C595 203.252 575.748 184 552 184C528.252 184 509 203.252 509 227V452H595Z" fill="#C15191"/>
</svg>
