<svg width="27" height="27" viewBox="0 0 27 27" fill="none" xmlns="http://www.w3.org/2000/svg">
<path fill-rule="evenodd" clip-rule="evenodd" d="M9.72729 13.0523C9.3213 12.5734 8.95385 12.1041 8.69237 11.703C8.56143 11.5022 8.46805 11.335 8.40995 11.2044C8.36924 11.1129 8.35724 11.0643 8.35392 11.0509L8.35303 11.0475C8.35454 10.6427 8.42061 10.4771 8.50232 10.3361C8.55677 10.2422 8.63123 10.1396 8.75207 9.98465C8.77764 9.95188 8.80536 9.91665 8.8349 9.87913C8.9367 9.7498 9.06014 9.59297 9.19046 9.41521C9.21171 9.38622 9.24373 9.34807 9.30976 9.27053L9.31095 9.26914C9.36935 9.20055 9.44744 9.10885 9.52625 9.00534C9.68636 8.79505 9.87354 8.50605 9.98429 8.13421C10.2231 7.33249 10.0331 6.4254 9.27 5.40034C8.43561 4.16664 7.18207 2.24575 6.52781 1.30459C6.02535 0.581786 5.33099 0.331218 4.72156 0.323188C3.18624 0.302958 0.907829 1.9196 0.362101 3.24973C0.173281 3.70995 0.0790392 4.28991 0.0790392 5.06693C0.079039 6.68939 0.696272 8.95192 2.18764 11.6557C5.16051 17.0455 10.0001 21.885 15.3898 24.8579C18.0936 26.3493 20.3562 26.9665 21.9786 26.9665C22.7556 26.9665 23.3356 26.8723 23.7958 26.6834C25.124 26.1385 26.7426 23.8577 26.7224 22.324C26.7143 21.7146 26.4638 21.0202 25.741 20.5177C24.7998 19.8635 22.8789 18.6099 21.6452 17.7755C20.6201 17.0124 19.7131 16.8225 18.9113 17.0613C18.5395 17.172 18.2505 17.3592 18.0402 17.5193C17.9367 17.5981 17.845 17.6762 17.7764 17.7346L17.775 17.7358C17.6975 17.8018 17.6593 17.8338 17.6303 17.8551C17.4526 17.9854 17.2957 18.1088 17.1664 18.2106C17.1289 18.2402 17.0937 18.2679 17.0609 18.2935C16.906 18.4143 16.8034 18.4888 16.7094 18.5432C16.5685 18.6249 16.4029 18.691 15.9981 18.6925L15.9946 18.6916C15.9812 18.6883 15.9327 18.6763 15.8411 18.6356C15.7105 18.5775 15.5434 18.4841 15.3425 18.3532C14.9414 18.0917 14.4722 17.7242 13.9932 17.3183C12.4527 16.0124 11.0331 14.5928 9.72729 13.0523ZM1.90404 3.88236C1.8275 4.0689 1.74571 4.41095 1.74571 5.06693C1.74571 6.31047 2.2352 8.29117 3.64703 10.8508C6.46852 15.9661 11.0795 20.577 16.1948 23.3985C18.7544 24.8103 20.7351 25.2998 21.9786 25.2998C22.6346 25.2998 22.9767 25.218 23.1632 25.1415C23.9767 24.8077 24.7671 23.4203 25.0169 22.6045C25.0413 22.5249 25.057 22.4343 25.0558 22.346C25.0547 22.2601 25.038 22.1849 25.0054 22.1188C24.9745 22.0562 24.9158 21.9739 24.7896 21.8862C23.8448 21.2294 21.9831 20.0166 20.6951 19.145C20.684 19.1375 20.673 19.1297 20.6623 19.1216C19.9087 18.5567 19.5367 18.614 19.3871 18.6586C19.2811 18.6902 19.1744 18.7505 19.0498 18.8453C18.9866 18.8935 18.9266 18.9442 18.8556 19.0047L18.8436 19.0149C18.7822 19.0673 18.6987 19.1384 18.6158 19.1992C18.4633 19.311 18.3369 19.4104 18.2111 19.5094L18.2104 19.51C18.1691 19.5425 18.1279 19.5749 18.0859 19.6077C17.9246 19.7335 17.7454 19.8691 17.5453 19.9851C17.0998 20.2434 16.6303 20.3592 15.9839 20.3592C15.6792 20.3592 15.39 20.259 15.1638 20.1584C14.9235 20.0515 14.6751 19.9076 14.4323 19.7494C13.9462 19.4324 13.4161 19.0139 12.9155 18.5896C11.3055 17.2248 9.82074 15.7401 8.45594 14.13C8.03162 13.6295 7.6131 13.0993 7.29619 12.6132C7.13793 12.3705 6.99401 12.1221 6.8871 11.8817C6.78652 11.6555 6.68634 11.3663 6.68634 11.0616C6.68634 10.4153 6.80215 9.94575 7.06041 9.50024C7.17642 9.30013 7.31203 9.12098 7.43787 8.95965C7.47066 8.9176 7.50308 8.8764 7.53554 8.83515L7.53606 8.83449C7.63507 8.70866 7.73452 8.58227 7.84635 8.42975C7.9071 8.34689 7.97823 8.26343 8.03053 8.20206L8.04084 8.18997C8.10132 8.11894 8.15206 8.05893 8.2002 7.9957C8.29507 7.8711 8.35539 7.76448 8.38697 7.65846C8.43154 7.50883 8.4888 7.13681 7.92391 6.38326C7.91585 6.37251 7.90805 6.36156 7.90052 6.35043C7.02898 5.06242 5.81616 3.20078 5.15932 2.25591C5.0716 2.12973 4.9893 2.07109 4.92673 2.04018C4.86068 2.00756 4.78548 1.99084 4.6996 1.98971C4.61123 1.98855 4.52063 2.00428 4.44106 2.02864C3.6141 2.28182 2.243 3.05619 1.90404 3.88236Z" fill="#E9E9E8"/>
</svg>
