<svg width="30" height="30" viewBox="0 0 30 30" fill="none" xmlns="http://www.w3.org/2000/svg">
<path fill-rule="evenodd" clip-rule="evenodd" d="M11.2887 7.42732C11.6216 7.51777 11.848 7.8064 11.9881 8.12164L13.2662 10.9969C13.4326 11.3713 13.3614 11.8429 13.1448 12.1907C12.7925 12.7561 12.3928 13.5105 12.6746 14.1142C13.381 15.6276 14.3591 16.5521 15.8348 17.2686C16.4378 17.5614 17.1872 17.1316 17.7527 16.772C18.0785 16.5648 18.5378 16.4858 18.8892 16.6456L21.8865 18.0087C22.196 18.1494 22.479 18.3735 22.5696 18.7011C23.0454 20.4226 20.967 22.6358 19.3613 22.6358C17.7854 22.6358 16.225 22.3254 14.7691 21.7225C13.3131 21.1195 11.9903 20.2357 10.876 19.1215C9.76167 18.0074 8.87776 16.6847 8.2747 15.2289C7.67165 13.7732 7.36126 12.213 7.36126 10.6374C7.36126 9.03421 9.5681 6.95991 11.2887 7.42732ZM11.8799 11.4656L10.7049 8.82217C10.459 8.84433 10.0743 8.97765 9.63085 9.35967C9.03396 9.87386 8.8184 10.4255 8.8184 10.6374C8.8184 12.0217 9.0911 13.3924 9.62093 14.6714C10.1508 15.9503 10.9273 17.1124 11.9063 18.0913C12.8853 19.0702 14.0476 19.8466 15.3267 20.3764C16.6058 20.9062 17.9767 21.1788 19.3613 21.1788C19.5737 21.1788 20.1267 20.9624 20.6411 20.3641C21.0252 19.9176 21.1567 19.5316 21.1771 19.2867L18.4578 18.05C18.1705 18.2307 17.7512 18.4797 17.286 18.6412C16.7797 18.8171 15.9962 18.9667 15.1983 18.5792C13.4498 17.7302 12.2147 16.574 11.3541 14.7304C10.9926 13.9558 11.1214 13.1948 11.2861 12.688C11.4442 12.2013 11.6942 11.7665 11.8799 11.4656Z" fill="#E9E9E8"/>
<path fill-rule="evenodd" clip-rule="evenodd" d="M15 29.9961C23.2843 29.9961 30 23.2812 30 14.998C30 6.71485 23.2843 0 15 0C6.71573 0 0 6.71485 0 14.998C0 17.4974 0.611445 19.854 1.69293 21.9264C1.7954 22.1227 1.82412 22.35 1.76679 22.5639L0.0633984 28.9202C-0.107378 29.5575 0.475835 30.1406 1.11318 29.9699L7.493 28.2606C7.7057 28.2037 7.93165 28.2317 8.12731 28.3327C10.1863 29.3958 12.523 29.9961 15 29.9961ZM28.2857 14.998C28.2857 22.3346 22.3375 28.282 15 28.282C12.803 28.282 10.7353 27.7502 8.91385 26.8097C8.35748 26.5225 7.69404 26.4323 7.04931 26.605L2.10352 27.93L3.42266 23.0076C3.59644 22.3591 3.50413 21.6918 3.21276 21.1334C2.25598 19.3 1.71429 17.2148 1.71429 14.998C1.71429 7.6615 7.6625 1.71406 15 1.71406C22.3375 1.71406 28.2857 7.6615 28.2857 14.998Z" fill="#E9E9E8"/>
</svg>
