<svg width="30" height="24" viewBox="0 0 30 24" fill="none" xmlns="http://www.w3.org/2000/svg">
<path fill-rule="evenodd" clip-rule="evenodd" d="M29.542 2.11378L24.6509 21.0982C24.208 22.8172 22.2097 23.5081 20.7932 22.6318C19.6334 21.9142 17.2212 20.4971 12.4885 17.9531C11.547 17.447 11.2098 16.1283 12.0176 15.236L14.3746 12.6325L10.5094 14.7505C9.262 15.434 7.71965 15.8321 6.1274 15.4997C3.96629 15.0485 1.93727 14.2394 1.3248 13.9847C-0.21705 13.3437 -0.00702152 11.3018 1.33675 10.7525L27.2862 0.145413C28.5612 -0.375753 29.8858 0.779312 29.542 2.11378ZM1.96737 12.2952C1.89921 12.3231 1.89664 12.4175 1.96463 12.4458C2.54691 12.6879 4.46152 13.4493 6.46803 13.8682C7.57756 14.0999 8.71446 13.8335 9.70846 13.2889L20.9486 7.12973C21.1958 6.99427 21.4433 7.30779 21.2541 7.51675L13.2532 16.3546C13.2169 16.3947 13.2299 16.4594 13.2776 16.4851C18.0264 19.0378 20.4706 20.4723 21.6701 21.2144C22.1777 21.5285 22.888 21.2605 23.0369 20.6824L27.928 1.69796C27.9297 1.69133 27.9231 1.68558 27.9168 1.68817L1.96737 12.2952Z" fill="#E9E9E8"/>
</svg>
