<svg width="126" height="53" viewBox="0 0 126 53" fill="none" xmlns="http://www.w3.org/2000/svg">
<g clip-path="url(#clip0_21_1292)">
<path d="M30.4199 22C36.5006 22 41.4299 17.0751 41.4299 11C41.4299 4.92487 36.5006 0 30.4199 0C24.3393 0 19.4099 4.92487 19.4099 11C19.4099 17.0751 24.3393 22 30.4199 22Z" fill="#C15191"/>
<path d="M6.13 6.46H0V1.33H18.23V6.46H12.09V20.58H6.09L6.13 6.46Z" fill="#1D1D1B"/>
<path d="M63.0999 20.58H57.0999V15.88C55.8445 16.4485 54.4778 16.7287 53.0999 16.7C47.2999 16.7 43.9399 14.14 43.9399 8.34V1.34H49.9399V8.59C49.9399 10.8 51.1399 11.78 53.2699 11.78C54.6006 11.7874 55.9161 11.497 57.1199 10.93V1.33H63.1199L63.0999 20.58Z" fill="#1D1D1B"/>
<path d="M66 1.33H72V8.44H74.23L78.85 1.33H85.53L79.13 10.52L86 20.58H79L74.12 13.26H71.92V20.58H66V1.33Z" fill="#1D1D1B"/>
<path d="M107.38 20.58H101.43V10.49L93.8301 20.58H87.8301V1.33H93.8301V11.57L101.43 1.33H107.38V20.58Z" fill="#1D1D1B"/>
<path d="M6.73006 39.89H9.88006C11.4001 39.89 12.3701 39.02 12.3701 37.89C12.3701 36.76 11.3701 36.12 9.47006 36.12C7.57006 36.12 6.11006 37.02 6.11006 38.41L0.560059 38C1.05006 34 3.93006 31.46 10.0401 31.46C15.0401 31.46 17.8701 33.69 17.8701 36.87C17.9067 37.8591 17.6386 38.8355 17.102 39.6672C16.5654 40.4989 15.7863 41.1457 14.8701 41.52C17.1801 42.24 18.6701 43.68 18.6701 46.27C18.6701 49.61 15.8701 52.05 10.2501 52.05C3.85006 52 1.05006 49.47 0.560059 45.49L6.11006 45C6.11006 46.31 7.65006 47.28 9.70006 47.28C11.7501 47.28 12.8901 46.62 12.8901 45.38C12.8901 44.3 11.6001 43.56 9.76006 43.56H6.76006L6.73006 39.89Z" fill="#1D1D1B"/>
<path d="M21.32 32.11H32.41C36.93 32.11 40.34 34.61 40.34 39.74C40.34 44.87 36.93 47.34 32.41 47.34H27.28V51.34H21.28L21.32 32.11ZM27.32 37.25V42.25H31.83C33.2 42.25 34.4 41.69 34.4 39.82C34.4319 39.4768 34.3869 39.1307 34.2683 38.8071C34.1497 38.4834 33.9604 38.1902 33.7143 37.9489C33.4681 37.7075 33.1713 37.5241 32.8454 37.4118C32.5194 37.2996 32.1726 37.2614 31.83 37.3L27.32 37.25Z" fill="#1D1D1B"/>
<path d="M42.6899 32.11H59.0999V37.25H48.6499V39.64H58.2199V43.85H48.6499V46.23H59.0999V51.37H42.6899V32.11Z" fill="#1D1D1B"/>
<path d="M75.72 44.31H67.92V51.37H62V32.11H68V39.18H75.8V32.11H81.8V51.37H75.8L75.72 44.31Z" fill="#1D1D1B"/>
<path d="M104.05 51.37H98.05V41.28L90.45 51.37H84.54V32.11H90.49V42.36L98.09 32.11H104.09L104.05 51.37Z" fill="#1D1D1B"/>
<path d="M125.72 51.37H119.72V46.65H116.38L113.12 51.37H106.12L110.66 45.37C109.389 44.8903 108.301 44.0206 107.554 42.8853C106.807 41.7501 106.438 40.4076 106.5 39.05C106.5 34.05 109.84 32.05 114.23 32.05H125.7L125.72 51.37ZM114.79 37.25C114.482 37.2144 114.171 37.248 113.878 37.3482C113.585 37.4485 113.318 37.6129 113.096 37.8294C112.875 38.046 112.705 38.3093 112.598 38.6C112.492 38.8908 112.451 39.2017 112.48 39.51C112.48 41 113.35 41.66 114.79 41.66H119.79V37.25H114.79Z" fill="#1D1D1B"/>
<path d="M30.1601 43.93C32.5515 43.93 34.4901 41.9959 34.4901 39.61C34.4901 37.2241 32.5515 35.29 30.1601 35.29C27.7687 35.29 25.8301 37.2241 25.8301 39.61C25.8301 41.9959 27.7687 43.93 30.1601 43.93Z" fill="#C15191"/>
<path d="M116.31 43.5C118.701 43.5 120.64 41.5659 120.64 39.18C120.64 36.7941 118.701 34.86 116.31 34.86C113.919 34.86 111.98 36.7941 111.98 39.18C111.98 41.5659 113.919 43.5 116.31 43.5Z" fill="#C15191"/>
</g>
<defs>
<clipPath id="clip0_21_1292">
<rect width="125.72" height="52.04" fill="white"/>
</clipPath>
</defs>
</svg>
