<svg width="221" height="233" viewBox="0 0 221 233" fill="none" xmlns="http://www.w3.org/2000/svg">
<g clip-path="url(#clip0_21_1376)">
<path d="M152.708 165.666H148.344V162.21H145.896L143.512 165.666H138.371L141.703 161.285C140.771 160.935 139.974 160.298 139.427 159.467C138.88 158.636 138.611 157.653 138.658 156.659C138.658 153.022 141.107 151.576 144.321 151.576H152.73L152.708 165.666ZM144.694 155.33C144.468 155.305 144.24 155.331 144.026 155.405C143.811 155.479 143.616 155.6 143.454 155.759C143.292 155.918 143.168 156.11 143.089 156.323C143.011 156.536 142.981 156.763 143.001 156.989C143.001 158.052 143.64 158.562 144.694 158.562H148.344V155.372L144.694 155.33Z" fill="#1D1D1B"/>
<path d="M136.817 165.666H132.453V158.286L126.886 165.666H122.522V151.576H126.886V159.073L132.453 151.576H136.817V165.666Z" fill="#1D1D1B"/>
<path d="M145.811 159.902C147.563 159.902 148.983 158.488 148.983 156.744C148.983 155 147.563 153.586 145.811 153.586C144.059 153.586 142.639 155 142.639 156.744C142.639 158.488 144.059 159.902 145.811 159.902Z" fill="#C15191"/>
<path d="M116.019 160.498H110.303V165.666H105.939V151.576H110.303V156.744H116.019V151.576H120.383V165.666H116.019V160.498Z" fill="#1D1D1B"/>
<path d="M91.8677 151.576H103.885V155.33H96.2317V157.074H103.246V160.158H96.2317V161.912H103.885V165.666H91.8677V151.576Z" fill="#1D1D1B"/>
<path d="M76.2 151.576H84.3319C87.6422 151.576 90.1435 153.394 90.1435 157.148C90.1435 160.902 87.6422 162.699 84.3319 162.699H80.564V165.645H76.2V151.576ZM80.564 155.33V158.956H83.8742C84.1218 158.992 84.3745 158.972 84.6131 158.897C84.8517 158.822 85.0701 158.693 85.2516 158.521C85.4331 158.349 85.573 158.138 85.6608 157.903C85.7486 157.669 85.7819 157.418 85.7582 157.169C85.7822 156.918 85.7496 156.665 85.6628 156.428C85.5759 156.191 85.4371 155.976 85.2564 155.8C85.0757 155.623 84.8578 155.489 84.6186 155.408C84.3795 155.327 84.1251 155.3 83.8742 155.33H80.564Z" fill="#1D1D1B"/>
<path d="M65.5133 157.265H67.8231C68.8874 157.265 69.6432 156.627 69.6432 155.84C69.6432 155.053 68.8768 154.543 67.5144 154.543C66.152 154.543 65.045 155.202 65.045 156.212L60.979 155.872C61.3409 152.98 63.4484 151.087 67.9188 151.087C71.5697 151.087 73.6666 152.714 73.6666 155.053C73.6937 155.775 73.4978 156.488 73.1056 157.095C72.7133 157.702 72.1437 158.173 71.4739 158.446C72.2737 158.604 72.9915 159.04 73.5001 159.676C74.0086 160.313 74.275 161.109 74.252 161.923C74.252 164.369 72.2084 166.176 68.0892 166.176C63.4058 166.176 61.3515 164.294 60.9896 161.381L65.0556 161.051C65.0556 162.008 66.1839 162.72 67.6953 162.72C69.2068 162.72 70.0263 162.231 70.0263 161.327C70.0263 160.424 69.079 159.998 67.7273 159.998H65.5133V157.265Z" fill="#1D1D1B"/>
<path d="M82.6821 160.221C84.4339 160.221 85.854 158.807 85.854 157.063C85.854 155.319 84.4339 153.905 82.6821 153.905C80.9304 153.905 79.5103 155.319 79.5103 157.063C79.5103 158.807 80.9304 160.221 82.6821 160.221Z" fill="#C15191"/>
<path d="M139.265 143.133H134.901V135.742L129.334 143.133H124.97V129.032H129.334V136.476L134.901 129.032H139.265V143.133Z" fill="#1D1D1B"/>
<path d="M108.919 129.032H113.283V134.243H114.955L118.35 129.032H123.236L118.552 135.763L123.608 143.133H118.531L114.955 137.816H113.326V143.133H108.962L108.919 129.032Z" fill="#1D1D1B"/>
<path d="M106.823 143.133H102.448V139.687C101.53 140.107 100.53 140.315 99.5208 140.293C95.2632 140.293 92.8044 138.411 92.8044 134.168V129.032H97.1897V134.349C97.1897 135.965 98.0732 136.678 99.6272 136.678C100.602 136.684 101.565 136.473 102.448 136.061V129.032H106.823V143.133Z" fill="#1D1D1B"/>
<path d="M65.0769 132.796H60.5852V129.032H73.9327V132.796H69.441V143.133H65.0769V132.796Z" fill="#1D1D1B"/>
<path d="M194.88 172.738C209.306 172.738 221 161.078 221 146.695C221 132.312 209.306 120.653 194.88 120.653C180.454 120.653 168.76 132.312 168.76 146.695C168.76 161.078 180.454 172.738 194.88 172.738Z" fill="#C15191"/>
<path d="M86.7162 233C101.113 233 112.783 221.34 112.783 206.958C112.783 192.575 101.113 180.915 86.7162 180.915C72.3198 180.915 60.6492 192.575 60.6492 206.958C60.6492 221.34 72.3198 233 86.7162 233Z" fill="#1D1D1B"/>
<path d="M26.4608 232.777C40.8572 232.777 52.5278 221.117 52.5278 206.734C52.5278 192.351 40.8572 180.692 26.4608 180.692C12.0644 180.692 0.393799 192.351 0.393799 206.734C0.393799 221.117 12.0644 232.777 26.4608 232.777Z" fill="#1D1D1B"/>
<path d="M82.8738 144.164C87.3297 144.164 90.9419 140.56 90.9419 136.114C90.9419 131.669 87.3297 128.064 82.8738 128.064C78.4179 128.064 74.8057 131.669 74.8057 136.114C74.8057 140.56 78.4179 144.164 82.8738 144.164Z" fill="#C15191"/>
<path d="M26.1202 172.674C40.546 172.674 52.2404 161.014 52.2404 146.631C52.2404 132.248 40.546 120.589 26.1202 120.589C11.6944 120.589 0 132.248 0 146.631C0 161.014 11.6944 172.674 26.1202 172.674Z" fill="#1D1D1B"/>
<path d="M26.4396 112.422C40.836 112.422 52.5065 100.762 52.5065 86.3794C52.5065 71.9965 40.836 60.3369 26.4396 60.3369C12.0431 60.3369 0.372559 71.9965 0.372559 86.3794C0.372559 100.762 12.0431 112.422 26.4396 112.422Z" fill="#1D1D1B"/>
<path d="M86.8546 112.369C101.251 112.369 112.922 100.709 112.922 86.3262C112.922 71.9433 101.251 60.2837 86.8546 60.2837C72.4582 60.2837 60.7876 71.9433 60.7876 86.3262C60.7876 100.709 72.4582 112.369 86.8546 112.369Z" fill="#1D1D1B"/>
<path d="M86.7799 52.085C101.176 52.085 112.847 40.4254 112.847 26.0425C112.847 11.6596 101.176 0 86.7799 0C72.3835 0 60.7129 11.6596 60.7129 26.0425C60.7129 40.4254 72.3835 52.085 86.7799 52.085Z" fill="#1D1D1B"/>
<path d="M26.4503 52.1699C40.8467 52.1699 52.5173 40.5103 52.5173 26.1275C52.5173 11.7446 40.8467 0.0849609 26.4503 0.0849609C12.0539 0.0849609 0.383301 11.7446 0.383301 26.1275C0.383301 40.5103 12.0539 52.1699 26.4503 52.1699Z" fill="#1D1D1B"/>
</g>
<defs>
<clipPath id="clip0_21_1376">
<rect width="221" height="233" fill="white"/>
</clipPath>
</defs>
</svg>
