<svg width="129" height="52" viewBox="0 0 129 52" fill="none" xmlns="http://www.w3.org/2000/svg">
<path d="M1 1.06006H11.8C16.2 1.06006 19.53 3.49006 19.53 8.49006C19.53 13.4901 16.2 15.8901 11.8 15.8901H6.8V19.8201H1V1.06006ZM6.8 6.06006V10.8901H11.2C11.5286 10.9405 11.8643 10.9151 12.1816 10.8158C12.4989 10.7166 12.7892 10.5461 13.0305 10.3174C13.2717 10.0887 13.4575 9.80781 13.5735 9.4963C13.6896 9.18478 13.7328 8.85086 13.7 8.52006C13.7318 8.18561 13.6886 7.84829 13.5736 7.53262C13.4586 7.21696 13.2747 6.93091 13.0353 6.69528C12.7958 6.45964 12.5068 6.28036 12.1893 6.17048C11.8719 6.0606 11.5339 6.02287 11.2 6.06006H6.8Z" fill="#1D1D1B"/>
<path d="M45.0601 1.06006H50.8701V19.8201H45.0601V1.06006Z" fill="#1D1D1B"/>
<path d="M53.9399 1.06006H59.7399L67.1399 11.0601V1.06006H72.9999V19.8201H67.1399L59.7399 10.0001V19.8301H53.9399V1.06006Z" fill="#1D1D1B"/>
<path d="M81 6.06006H75V1.06006H92.8V6.06006H86.8V19.8201H81V6.06006Z" fill="#1D1D1B"/>
<path d="M96.4401 13.3199C99.0492 14.6981 101.94 15.4577 104.89 15.5399C106.47 15.5399 107.4 15.1699 107.4 14.5899C107.4 12.5899 95.2101 13.2199 95.2101 6.28994C95.2101 2.95994 98.4901 0.439941 104.21 0.439941C109.93 0.439941 112.71 2.70994 112.71 2.70994L110.35 6.99994C108.289 5.96544 106.026 5.3954 103.72 5.32994C102.17 5.32994 101.14 5.69994 101.14 6.32994C101.14 8.32994 113.32 7.57994 113.32 14.7299C113.32 17.4599 110.72 20.4899 104.67 20.4899C101.18 20.5065 97.7281 19.7555 94.5601 18.2899L96.4401 13.3199Z" fill="#1D1D1B"/>
<path d="M24 31.0601H40V36.0601H29.76V39.5901H38.76V44.2901H29.76V49.8201H24V31.0601Z" fill="#1D1D1B"/>
<path d="M55.14 31.0601L59.42 44.2401H60.14L64.42 31.0601H70.62L63.82 49.8201H55.82L49 31.0601H55.14Z" fill="#1D1D1B"/>
<path d="M72.71 31.0601H78.52V49.8201H72.71V31.0601Z" fill="#1D1D1B"/>
<path d="M81.5901 31.0601H97.5901V36.0601H87.3901V38.3901H96.7201V42.4901H87.3901V44.8201H97.5701V49.8201H81.5701L81.5901 31.0601Z" fill="#1D1D1B"/>
<path d="M105.57 31.0601L108.42 42.6901L111.19 31.0601H116.5L119.27 42.7201L122.13 31.0601H128.28L123 49.8201H116.44L113.87 40.5401L111.29 49.8201H104.74L99.4399 31.0601H105.57Z" fill="#1D1D1B"/>
<path d="M31.95 21.42C37.865 21.42 42.66 16.625 42.66 10.71C42.66 4.79503 37.865 0 31.95 0C26.035 0 21.24 4.79503 21.24 10.71C21.24 16.625 26.035 21.42 31.95 21.42Z" fill="#C15191"/>
<path d="M10.71 51.17C16.625 51.17 21.42 46.375 21.42 40.46C21.42 34.545 16.625 29.75 10.71 29.75C4.79503 29.75 0 34.545 0 40.46C0 46.375 4.79503 51.17 10.71 51.17Z" fill="#C15191"/>
<path d="M9.98002 12.63C12.3051 12.63 14.19 10.7451 14.19 8.41996C14.19 6.09484 12.3051 4.20996 9.98002 4.20996C7.6549 4.20996 5.77002 6.09484 5.77002 8.41996C5.77002 10.7451 7.6549 12.63 9.98002 12.63Z" fill="#C15191"/>
</svg>
