<svg width="180" height="190" viewBox="0 0 180 190" fill="none" xmlns="http://www.w3.org/2000/svg">
<g clip-path="url(#clip0_783_924)">
<path d="M48.4653 105.853H54.9273C57.5875 105.853 59.5907 107.34 59.5907 110.403C59.5907 113.467 57.5875 114.932 54.9273 114.932H51.9117V117.339H48.4653V105.853ZM51.9655 108.916V111.869H54.6257C54.8238 111.898 55.0258 111.881 55.2165 111.82C55.4072 111.758 55.5817 111.653 55.7268 111.513C55.8719 111.373 55.9839 111.201 56.0543 111.011C56.1248 110.821 56.1519 110.617 56.1336 110.414C56.1526 110.21 56.1263 110.004 56.0568 109.811C55.9873 109.618 55.8762 109.443 55.7317 109.3C55.5871 109.156 55.4128 109.047 55.2215 108.981C55.0301 108.914 54.8266 108.892 54.6257 108.916H51.9655Z" fill="white"/>
<path d="M74.9919 105.853H78.4922V117.339H74.9919V105.853Z" fill="white"/>
<path d="M80.3446 105.853H83.8449L88.3144 111.968V105.853H91.8147V117.339H88.3144L83.8449 111.322V117.339H80.3446V105.853Z" fill="white"/>
<path d="M96.6828 108.916H93.0748V105.853H103.78V108.916H100.162V117.339H96.6828V108.916Z" fill="white"/>
<path d="M105.977 113.356C107.553 114.204 109.3 114.672 111.082 114.724C112.03 114.724 112.59 114.494 112.59 114.144C112.59 112.919 105.245 113.302 105.245 109.057C105.245 107.011 107.216 105.469 110.63 105.469C112.441 105.361 114.239 105.848 115.757 106.858L114.356 109.462C113.115 108.826 111.751 108.475 110.361 108.434C109.424 108.434 108.81 108.663 108.81 109.079C108.81 110.304 116.155 109.845 116.155 114.232C116.155 115.905 114.583 117.754 110.932 117.754C108.827 117.766 106.746 117.306 104.836 116.409L105.977 113.356Z" fill="white"/>
<path d="M62.2725 124.23H71.9117V127.294H65.7727V129.482H71.2116V132.37H65.7727V135.75H62.2725V124.23Z" fill="white"/>
<path d="M81.077 124.23L83.6511 132.304H84.0926L86.6667 124.23H90.4685L86.3651 135.717H81.454L77.3506 124.23H81.077Z" fill="white"/>
<path d="M91.6748 124.23H95.1751V135.717H91.6748V124.23Z" fill="white"/>
<path d="M97.0275 124.23H106.721V127.294H100.582V128.716H106.204V131.276H100.528V132.698H106.624V135.761H96.9305L97.0275 124.23Z" fill="white"/>
<path d="M111.481 124.23L113.204 131.352L114.873 124.23H118.104L119.785 131.363L121.508 124.23H125.213L121.982 135.717H118.029L116.478 130.039L114.927 135.717H110.932L107.701 124.23H111.481Z" fill="white"/>
<path d="M20.9154 42.5332C32.4608 42.5332 41.8201 33.0265 41.8201 21.2993C41.8201 9.57216 32.4608 0.0654297 20.9154 0.0654297C9.37009 0.0654297 0.0107422 9.57216 0.0107422 21.2993C0.0107422 33.0265 9.37009 42.5332 20.9154 42.5332Z" fill="white"/>
<path d="M69.3053 42.4678C80.8507 42.4678 90.21 32.961 90.21 21.2339C90.21 9.50673 80.8507 0 69.3053 0C57.76 0 48.4006 9.50673 48.4006 21.2339C48.4006 32.961 57.76 42.4678 69.3053 42.4678Z" fill="white"/>
<path d="M69.37 91.6201C80.9153 91.6201 90.2746 82.1134 90.2746 70.3862C90.2746 58.6591 80.9153 49.1523 69.37 49.1523C57.8246 49.1523 48.4653 58.6591 48.4653 70.3862C48.4653 82.1134 57.8246 91.6201 69.37 91.6201Z" fill="white"/>
<path d="M20.9047 91.6748C32.45 91.6748 41.8094 82.1681 41.8094 70.4409C41.8094 58.7138 32.45 49.207 20.9047 49.207C9.35935 49.207 0 58.7138 0 70.4409C0 82.1681 9.35935 91.6748 20.9047 91.6748Z" fill="white"/>
<path d="M20.9154 140.805C32.4608 140.805 41.8201 131.298 41.8201 119.571C41.8201 107.844 32.4608 98.3369 20.9154 98.3369C9.37009 98.3369 0.0107422 107.844 0.0107422 119.571C0.0107422 131.298 9.37009 140.805 20.9154 140.805Z" fill="#198F76"/>
<path d="M67.0867 118.323C70.6556 118.323 73.5487 115.384 73.5487 111.759C73.5487 108.134 70.6556 105.195 67.0867 105.195C63.5178 105.195 60.6246 108.134 60.6246 111.759C60.6246 115.384 63.5178 118.323 67.0867 118.323Z" fill="#198F76"/>
<path d="M54.2811 136.548C57.85 136.548 60.7432 133.61 60.7432 129.985C60.7432 126.36 57.85 123.421 54.2811 123.421C50.7122 123.421 47.8191 126.36 47.8191 129.985C47.8191 133.61 50.7122 136.548 54.2811 136.548Z" fill="#198F76"/>
<path d="M20.9262 189.803C32.4716 189.803 41.8309 180.296 41.8309 168.569C41.8309 156.842 32.4716 147.335 20.9262 147.335C9.38089 147.335 0.0215454 156.842 0.0215454 168.569C0.0215454 180.296 9.38089 189.803 20.9262 189.803Z" fill="white"/>
<path d="M69.2515 189.989C80.7968 189.989 90.1562 180.482 90.1562 168.755C90.1562 157.028 80.7968 147.521 69.2515 147.521C57.7062 147.521 48.3468 157.028 48.3468 168.755C48.3468 180.482 57.7062 189.989 69.2515 189.989Z" fill="white"/>
<path d="M159.095 140.728C170.641 140.728 180 131.221 180 119.494C180 107.767 170.641 98.2598 159.095 98.2598C147.55 98.2598 138.191 107.767 138.191 119.494C138.191 131.221 147.55 140.728 159.095 140.728Z" fill="#198F76"/>
<path d="M53.8395 112.941C55.2433 112.941 56.3813 111.785 56.3813 110.359C56.3813 108.933 55.2433 107.777 53.8395 107.777C52.4358 107.777 51.2978 108.933 51.2978 110.359C51.2978 111.785 52.4358 112.941 53.8395 112.941Z" fill="#198F76"/>
</g>
<defs>
<clipPath id="clip0_783_924">
<rect width="180" height="190" fill="white"/>
</clipPath>
</defs>
</svg>
