<svg width="183" height="186" viewBox="0 0 183 186" fill="none" xmlns="http://www.w3.org/2000/svg">
<path fill-rule="evenodd" clip-rule="evenodd" d="M90 186C141.362 186 183 144.362 183 93C183 41.6375 141.362 4.12323e-05 90 0V186Z" fill="#C495C4"/>
<path d="M45 69.5C45 57.0736 55.0736 47 67.5 47C79.9264 47 90 57.0736 90 69.5V163.5C90 175.926 79.9264 186 67.5 186C55.0736 186 45 175.926 45 163.5V69.5Z" fill="#799FCC"/>
<path d="M90 23.5C90 35.9264 79.9264 46 67.5 46C55.0736 46 45 35.9264 45 23.5C45 11.0736 55.0736 1 67.5 1C79.9264 1 90 11.0736 90 23.5Z" fill="#C15191"/>
<path fill-rule="evenodd" clip-rule="evenodd" d="M45 96C20.1472 96 0 116.147 0 141C0 165.853 20.1472 186 45 186L45 96Z" fill="#C15191"/>
</svg>
