<svg width="90" height="90" viewBox="0 0 90 90" fill="none" xmlns="http://www.w3.org/2000/svg">
<circle cx="45" cy="45" r="45" fill="#C15191"/>
<path d="M54.375 55.6252H35.625C34.8083 55.6353 34.0208 55.3212 33.4351 54.7519C32.8494 54.1826 32.5132 53.4044 32.5 52.5877V37.4127C32.5132 36.596 32.8494 35.8178 33.4351 35.2485C34.0208 34.6792 34.8083 34.3652 35.625 34.3752H41.375C41.5596 34.3765 41.7417 34.4186 41.9081 34.4985C42.0745 34.5785 42.2212 34.6943 42.3375 34.8377L45.5875 38.8127H54.3375C54.745 38.8028 55.1505 38.8736 55.5306 39.0212C55.9106 39.1688 56.2576 39.3902 56.5516 39.6726C56.8457 39.955 57.0808 40.2928 57.2436 40.6665C57.4064 41.0403 57.4935 41.4426 57.5 41.8502V52.5877C57.4868 53.4044 57.1506 54.1826 56.5649 54.7519C55.9792 55.3212 55.1917 55.6353 54.375 55.6252Z" fill="#E9E9E8"/>
</svg>
